<svg width="175" height="43" viewBox="0 0 175 43" fill="none" xmlns="http://www.w3.org/2000/svg">
<g clip-path="url(#clip0_10_40)">
<path d="M172.54 39.7042C172.648 39.7052 172.754 39.6843 172.853 39.6428C172.953 39.6012 173.042 39.5399 173.116 39.4626C173.19 39.3852 173.248 39.2936 173.285 39.1933C173.322 39.0931 173.338 38.9863 173.332 38.8797C173.332 38.2949 172.977 38.0155 172.248 38.0155H171.07V41.077H171.513V39.7425H172.057L172.07 39.7587L172.914 41.077H173.388L172.479 39.7126L172.54 39.7042ZM172.028 39.3975H171.514V38.3625H172.165C172.502 38.3625 172.885 38.417 172.885 38.8543C172.885 39.3572 172.497 39.3975 172.025 39.3975" fill="#0A66C2"/>
<path d="M0 6.22894H6.53738V29.879H18.64V35.8708H0V6.22894Z" fill="#0A66C2"/>
<path d="M21.5302 15.7727H27.8105V35.8597H21.5302V15.7727ZM24.6704 5.78644C25.3909 5.78657 26.0952 5.99889 26.6943 6.39655C27.2933 6.79422 27.7602 7.35937 28.0358 8.02054C28.3114 8.68172 28.3835 9.40922 28.2429 10.1111C28.1022 10.8129 27.7552 11.4576 27.2456 11.9635C26.7361 12.4695 26.0869 12.8141 25.3802 12.9536C24.6735 13.0932 23.941 13.0215 23.2754 12.7476C22.6097 12.4737 22.0408 12.0099 21.6405 11.4149C21.2402 10.8199 21.0265 10.1204 21.0265 9.40476C21.0265 8.92954 21.1208 8.45898 21.3039 8.01994C21.487 7.5809 21.7554 7.18199 22.0938 6.84599C22.4322 6.50999 22.8339 6.24348 23.276 6.06168C23.7181 5.87988 24.1919 5.78635 24.6704 5.78644Z" fill="#0A66C2"/>
<path d="M54.0817 6.22437H60.362V23.9392L67.4796 15.7636H75.1795L66.9367 25.0632L75.0062 35.8681H67.1127L60.4458 25.939H60.3633V35.8668H54.083L54.0817 6.22437Z" fill="#0A66C2"/>
<path d="M31.2928 15.7747H37.3238V18.5198H37.4095C38.0119 17.4948 38.8834 16.6515 39.9307 16.08C40.9781 15.5085 42.162 15.2303 43.3562 15.275C49.7248 15.275 50.8971 19.4366 50.8971 24.8429V35.8584H44.6168V26.0923C44.6168 23.7611 44.5736 20.7646 41.3458 20.7646C38.0814 20.7646 37.5777 23.3031 37.5777 25.9228V35.8558H31.2974L31.2928 15.7747Z" fill="#0A66C2"/>
<path d="M88.4054 23.4798C88.4174 22.9738 88.3259 22.4706 88.1363 22.0008C87.9468 21.5309 87.6632 21.1041 87.3027 20.7463C86.9421 20.3885 86.5122 20.1071 86.039 19.9192C85.5658 19.7313 85.0591 19.6407 84.5496 19.6529C83.4523 19.5851 82.3721 19.9483 81.5419 20.6642C80.7117 21.3801 80.198 22.3913 80.1115 23.4798H88.4054ZM93.7253 32.3811C92.6817 33.638 91.3697 34.6486 89.8843 35.3398C88.399 36.0311 86.7774 36.3855 85.1371 36.3776C78.8568 36.3776 73.8286 32.2141 73.8286 25.7669C73.8286 19.3196 78.8561 15.1581 85.1371 15.1581C91.0072 15.1581 94.6883 19.3164 94.6883 25.7669V27.7226H80.1115C80.293 28.8317 80.872 29.8383 81.7417 30.5569C82.6115 31.2756 83.7135 31.6578 84.8446 31.6333C85.7385 31.6278 86.6168 31.4003 87.3996 30.9716C88.1824 30.5428 88.8448 29.9265 89.3265 29.1786L93.7253 32.3811Z" fill="#0A66C2"/>
<path d="M107.779 20.6281C104.639 20.6281 102.755 22.7105 102.755 25.7447C102.755 28.779 104.638 30.8633 107.779 30.8633C110.92 30.8633 112.808 28.7842 112.808 25.7447C112.808 22.7053 110.923 20.6281 107.779 20.6281ZM118.589 35.8558H112.808V33.1919H112.722C111.997 34.1609 111.056 34.9504 109.973 35.499C108.89 36.0476 107.694 36.3405 106.478 36.3548C100.444 36.3548 96.4691 32.0295 96.4691 25.913C96.4691 20.2955 99.9866 15.1373 105.769 15.1373C108.368 15.1373 110.796 15.8436 112.22 17.8012H112.303V6.22241H118.589L118.589 35.8558Z" fill="#0A66C2"/>
<path d="M160.987 35.8675H154.707V26.0995C154.707 23.7703 154.665 20.7718 151.44 20.7718C148.169 20.7718 147.669 23.3096 147.669 25.93V35.8669H141.389V15.7799H147.418V18.525H147.502C148.106 17.5004 148.977 16.6576 150.025 16.0862C151.073 15.5148 152.257 15.2363 153.451 15.2803C159.816 15.2803 160.99 19.4385 160.99 24.8482L160.987 35.8675ZM134.302 13.0342C133.582 13.0343 132.877 12.8222 132.278 12.4245C131.678 12.0269 131.211 11.4617 130.935 10.8003C130.659 10.139 130.587 9.41121 130.727 8.70904C130.868 8.00688 131.215 7.36187 131.724 6.85556C132.234 6.34926 132.883 6.0044 133.59 5.86461C134.297 5.72482 135.03 5.79637 135.696 6.07021C136.362 6.34406 136.931 6.80789 137.332 7.40306C137.732 7.99824 137.946 8.69802 137.946 9.41391C137.946 9.88925 137.852 10.3599 137.669 10.7991C137.486 11.2383 137.218 11.6374 136.879 11.9736C136.541 12.3097 136.139 12.5764 135.697 12.7584C135.255 12.9404 134.781 13.0341 134.302 13.0342ZM137.443 35.8675H131.156V15.7799H137.443V35.8675ZM164.118 0.00262386H128C127.18 -0.00656415 126.39 0.307862 125.804 0.876809C125.217 1.44576 124.882 2.22268 124.872 3.03685V39.057C124.882 39.8716 125.217 40.6491 125.803 41.2186C126.39 41.7881 127.18 42.1032 128 42.0945H164.118C164.94 42.1047 165.732 41.7906 166.321 41.2211C166.91 40.6516 167.247 39.8732 167.258 39.057V3.03425C167.247 2.21846 166.909 1.44066 166.32 0.871726C165.732 0.302793 164.94 -0.0107353 164.118 2.39023e-05" fill="#0A66C2"/>
<path d="M172.082 36.6517C171.318 36.659 170.587 36.9665 170.051 37.507C169.515 38.0475 169.216 38.777 169.219 39.5359C169.223 40.2948 169.529 41.0214 170.071 41.5567C170.612 42.092 171.345 42.3926 172.109 42.3926C172.874 42.3926 173.607 42.092 174.148 41.5567C174.69 41.0214 174.996 40.2948 175 39.5359C175.003 38.777 174.704 38.0475 174.168 37.507C173.631 36.9665 172.901 36.659 172.137 36.6517H172.082ZM172.082 42.0639C171.581 42.0722 171.088 41.9327 170.667 41.6631C170.245 41.3934 169.914 41.0058 169.715 40.5491C169.515 40.0924 169.456 39.5872 169.546 39.0974C169.636 38.6076 169.869 38.1551 170.218 37.7973C170.566 37.4395 171.014 37.1923 171.504 37.0871C171.994 36.9819 172.504 37.0233 172.97 37.2061C173.436 37.3889 173.838 37.705 174.123 38.1142C174.408 38.5235 174.565 39.0076 174.574 39.5053C174.574 39.5196 174.574 39.5333 174.574 39.5476C174.588 40.2005 174.34 40.8323 173.885 41.304C173.43 41.7756 172.805 42.0485 172.148 42.0627H172.082" fill="#0A66C2"/>
</g>
<defs>
<clipPath id="clip0_10_40">
<rect width="175" height="42.444" fill="white"/>
</clipPath>
</defs>
</svg>
